<?xml version="1.0" standalone="no"?>
<!DOCTYPE svg PUBLIC "-//W3C//DTD SVG 20010904//EN"
 "http://www.w3.org/TR/2001/REC-SVG-20010904/DTD/svg10.dtd">
<svg version="1.0" xmlns="http://www.w3.org/2000/svg"
 width="317.000000pt" height="279.000000pt" viewBox="0 0 317.000000 279.000000"
 preserveAspectRatio="xMidYMid meet">

<g transform="translate(0.000000,279.000000) scale(0.100000,-0.100000)"
fill="#000000" stroke="none">
<path d="M1240 2671 c0 -6 6 -11 13 -11 6 -1 -4 -8 -23 -16 -19 -8 -42 -22
-52 -31 -10 -9 -20 -14 -23 -11 -7 7 -69 -53 -77 -74 -7 -17 -136 -128 -149
-128 -3 0 -24 -26 -45 -57 -21 -32 -50 -74 -64 -93 -28 -38 -54 -106 -75 -196
-13 -55 -11 -83 7 -95 15 -10 29 -110 36 -264 4 -82 12 -157 17 -165 5 -8 10
-26 11 -40 0 -14 2 -43 3 -65 l2 -40 16 40 c9 22 18 42 20 45 8 9 23 -26 16
-40 -3 -8 -7 -28 -9 -45 -1 -16 -6 -47 -10 -67 -7 -40 7 -71 29 -62 8 3 13 33
13 92 0 48 8 187 18 309 20 258 38 339 90 392 19 20 44 56 56 80 26 53 50 75
108 101 50 23 142 27 142 7 0 -7 16 -27 35 -46 19 -18 35 -36 35 -40 0 -12
115 -60 172 -72 29 -7 89 -9 134 -6 69 4 88 2 113 -14 17 -10 31 -25 31 -33 0
-8 21 -28 46 -44 40 -27 49 -29 77 -20 18 6 37 14 42 19 9 7 124 -27 154 -45
6 -4 11 -20 11 -35 0 -27 24 -112 40 -142 5 -9 23 -78 41 -153 23 -95 37 -136
47 -136 8 0 12 6 9 14 -7 17 11 36 28 29 29 -10 31 127 6 322 -5 44 -12 122
-15 174 -4 81 -8 98 -31 130 -30 41 -69 99 -147 222 -59 91 -122 144 -210 175
-24 8 -68 30 -98 48 -107 66 -150 77 -310 82 -80 2 -175 6 -212 10 -47 4 -68
3 -68 -5z"/>
<path d="M1909 1790 c-164 -30 -203 -45 -224 -83 -17 -33 -17 -34 6 -85 13
-29 30 -52 36 -52 7 0 13 -9 13 -20 0 -16 7 -20 30 -20 17 0 30 -5 30 -11 0
-5 -4 -8 -9 -4 -5 3 -12 1 -16 -4 -15 -25 111 -69 161 -56 l29 7 -44 19 c-42
18 -43 20 -25 34 12 9 43 14 81 15 34 0 64 4 68 9 3 5 19 12 35 16 32 7 39 19
16 28 -8 3 -16 16 -18 28 -4 32 -54 58 -126 65 -63 7 -81 20 -39 28 70 14 88
14 119 -2 31 -15 118 -26 118 -14 0 21 -54 91 -77 100 -52 20 -68 20 -164 2z
m91 -156 c14 -14 10 -15 -35 -9 -87 11 -101 15 -84 26 20 14 100 2 119 -17z"/>
<path d="M1084 1740 c-40 -13 -78 -54 -70 -76 4 -11 10 -13 19 -6 14 12 147
12 147 0 0 -5 -10 -12 -22 -17 -33 -13 -94 -81 -102 -112 -6 -26 -5 -26 58
-31 37 -3 74 -13 91 -24 l28 -18 -29 -12 c-26 -11 -27 -13 -10 -20 37 -14 196
31 196 55 0 5 -18 4 -41 -1 -35 -10 -43 -8 -61 9 l-20 20 49 -2 c26 -1 58 -5
71 -9 17 -6 22 -3 22 11 0 11 -5 24 -12 31 -9 9 -9 12 0 12 7 0 12 -4 12 -10
0 -5 6 -10 14 -10 21 0 29 35 14 59 -11 18 -9 24 17 51 l30 31 -25 20 c-60 48
-81 53 -215 56 -71 1 -144 -2 -161 -7z m193 -141 c-9 -6 -25 -8 -35 -5 -10 3
-50 -10 -90 -29 -70 -33 -71 -33 -56 -10 9 14 17 25 18 25 0 0 19 7 41 15 48
17 151 21 122 4z m63 -70 c0 -5 -7 -9 -15 -9 -15 0 -20 12 -9 23 8 8 24 -1 24
-14z m-153 -5 c-3 -3 -12 -4 -19 -1 -8 3 -5 6 6 6 11 1 17 -2 13 -5z"/>
<path d="M901 1234 c0 -11 3 -14 6 -6 3 7 2 16 -1 19 -3 4 -6 -2 -5 -13z"/>
<path d="M1341 1168 c-17 -40 -25 -48 -55 -53 -19 -4 -43 -14 -53 -23 -10 -10
-32 -25 -48 -34 -43 -24 -55 -79 -26 -119 11 -15 21 -33 21 -39 0 -5 4 -10 9
-10 5 0 17 -22 26 -50 9 -27 20 -50 25 -50 9 0 20 36 20 69 0 20 3 22 28 16
15 -3 40 -13 56 -21 39 -19 46 -18 46 6 0 11 -4 20 -9 20 -23 0 -19 31 5 42
20 9 28 9 41 -4 12 -13 20 -14 34 -5 15 9 24 9 39 0 10 -7 21 -9 24 -4 7 10
56 2 74 -12 8 -6 17 -5 27 3 17 14 75 30 132 35 51 4 65 -17 28 -41 -27 -18
-33 -44 -11 -44 22 0 28 -17 16 -39 -7 -14 -7 -22 1 -27 12 -7 79 55 82 77 2
8 13 33 27 57 38 68 92 48 88 -34 -2 -60 33 -75 51 -23 17 48 13 109 -9 158
-11 24 -20 49 -20 56 0 13 -43 48 -86 71 -21 11 -21 11 -5 -17 9 -16 19 -29
23 -29 4 0 17 -14 29 -32 l23 -31 -32 6 c-30 6 -32 5 -26 -18 6 -24 5 -25 -52
-26 -95 0 -175 -9 -231 -25 -55 -15 -107 -19 -101 -6 7 16 116 112 126 112 7
0 12 -7 12 -16 0 -8 4 -13 10 -9 5 3 7 11 4 18 -2 7 4 22 16 32 11 10 20 25
20 33 0 21 -67 9 -95 -18 -12 -11 -33 -20 -47 -20 -15 0 -33 -7 -42 -15 -8 -8
-19 -15 -25 -15 -15 0 -81 -68 -81 -84 0 -21 -41 -36 -115 -40 -86 -5 -101 4
-78 48 25 45 74 96 93 96 9 0 27 -11 40 -25 18 -19 27 -22 41 -14 11 5 16 16
12 25 -4 10 2 17 16 21 11 3 21 9 21 14 0 16 -32 23 -40 8 -7 -11 -13 -10 -29
5 -12 11 -21 27 -21 36 0 9 -6 25 -14 36 -14 18 -16 16 -35 -28z"/>
<path d="M1750 1080 c0 -5 7 -10 16 -10 8 0 12 5 9 10 -3 6 -10 10 -16 10 -5
0 -9 -4 -9 -10z"/>
<path d="M1435 831 c-8 -14 49 -51 71 -47 11 2 46 7 80 11 79 9 104 24 29 18
-31 -2 -64 -1 -73 3 -10 4 -29 6 -44 5 -14 -1 -29 2 -33 8 -8 13 -22 14 -30 2z"/>
<path d="M1473 745 c-10 -11 -10 -22 1 -52 7 -21 17 -37 22 -37 5 1 19 -2 32
-7 53 -20 161 0 202 37 12 12 12 14 -4 14 -15 0 -16 3 -6 15 10 12 9 15 -6 15
-16 0 -16 2 -4 10 10 6 -16 9 -76 8 -50 0 -104 2 -120 6 -19 3 -33 1 -41 -9z"/>
<path d="M1140 599 c0 -28 11 -107 25 -175 26 -129 63 -220 112 -278 15 -18
48 -59 72 -91 l44 -57 121 5 c110 4 180 10 245 20 13 2 27 11 32 20 11 18 -16
41 -63 52 -14 4 -34 16 -44 26 -17 19 -17 20 3 34 29 21 93 119 93 145 0 11 7
23 15 26 12 5 13 10 4 20 -8 10 -7 17 5 29 9 9 16 23 16 31 0 17 -38 56 -42
43 -3 -9 -101 4 -138 19 -35 13 -60 9 -85 -14 -15 -14 -34 -23 -41 -20 -9 3
-14 -2 -14 -14 0 -10 9 -22 20 -25 11 -4 20 -15 20 -27 0 -19 36 -80 52 -86 4
-2 8 -12 8 -22 0 -25 26 -84 44 -100 42 -34 -11 -49 -80 -22 -44 17 -133 71
-222 134 -48 34 -105 114 -135 191 -15 37 -27 73 -27 81 0 7 -7 19 -15 26 -11
9 -14 22 -10 41 3 15 1 30 -4 34 -7 4 -11 -12 -11 -46z"/>
<path d="M2146 528 c-27 -96 -56 -223 -60 -263 -4 -43 -26 -121 -51 -177 -9
-21 17 -25 33 -5 41 49 93 280 91 400 -2 55 -6 70 -13 45z"/>
<path d="M1903 463 c-24 -26 -40 -49 -37 -52 6 -6 84 78 84 91 0 13 -3 11 -47
-39z"/>
</g>
</svg>
